<svg width="15" height="9" viewBox="0 0 15 9" fill="none" xmlns="http://www.w3.org/2000/svg">
<path d="M0.5625 0C0.867188 0 1.125 0.257812 1.125 0.5625V8.4375C1.125 8.76562 0.867188 9 0.5625 9C0.234375 9 0 8.76562 0 8.4375V0.5625C0 0.257812 0.234375 0 0.5625 0ZM5.625 1.66406C5.85938 1.89844 5.85938 2.25 5.625 2.46094L4.14844 3.9375H10.8281L9.35156 2.46094C9.11719 2.25 9.11719 1.89844 9.35156 1.66406C9.5625 1.45312 9.91406 1.45312 10.125 1.66406L12.5625 4.10156C12.7969 4.33594 12.7969 4.6875 12.5625 4.89844L10.125 7.33594C9.91406 7.57031 9.5625 7.57031 9.35156 7.33594C9.11719 7.125 9.11719 6.77344 9.35156 6.53906L10.8281 5.0625H4.14844L5.625 6.53906C5.85938 6.77344 5.85938 7.125 5.625 7.33594C5.41406 7.57031 5.0625 7.57031 4.85156 7.33594L2.41406 4.89844C2.17969 4.6875 2.17969 4.33594 2.41406 4.10156L4.85156 1.66406C5.0625 1.45312 5.41406 1.45312 5.625 1.66406ZM15 8.4375C15 8.76562 14.7422 9 14.4375 9C14.1094 9 13.875 8.76562 13.875 8.4375V0.5625C13.875 0.257812 14.1094 0 14.4375 0C14.7422 0 15 0.257812 15 0.5625V8.4375Z" fill="#59C1FF"/>
</svg>
